HIERARCHY
ROOT Hips
{
  OFFSET 50.3132 50.3383 8.66298
  CHANNELS 6 Xposition Yposition Zposition Zrotation Xrotation Yrotation
  JOINT spine
  {
    OFFSET 0 8.81704 0.507024
    CHANNELS 3 Zrotation Xrotation Yrotation
    JOINT spine1
    {
      OFFSET 0 10.7766 0
      CHANNELS 3 Zrotation Xrotation Yrotation
      JOINT spine2
      {
        OFFSET 0 10.3259 0
        CHANNELS 3 Zrotation Xrotation Yrotation
        JOINT Neck
        {
          OFFSET 0 26.511 1.26395
          CHANNELS 3 Zrotation Xrotation Yrotation
          JOINT Head
          {
            OFFSET 0 8.00966 0
            CHANNELS 3 Zrotation Xrotation Yrotation
            End Site
            {
              OFFSET 0 19.3879 -6.39386
            }
          }
        }
        JOINT RightShoulder
        {
          OFFSET -4.34795 11.1512 -0.605422
          CHANNELS 3 Zrotation Xrotation Yrotation
          JOINT RightArm
          {
            OFFSET 0 14.6258 0
            CHANNELS 3 Zrotation Xrotation Yrotation
            JOINT RightArmRoll
            {
              OFFSET 0 7.3834 0
              CHANNELS 3 Zrotation Xrotation Yrotation
              JOINT RightForeArm
              {
                OFFSET 0 21.5052 0
                CHANNELS 3 Zrotation Xrotation Yrotation
                JOINT RightForeArmRoll
                {
                  OFFSET 0 8.28531 0
                  CHANNELS 3 Zrotation Xrotation Yrotation
                  JOINT RightHand
                  {
                    OFFSET 0 16.6268 0
                    CHANNELS 3 Zrotation Xrotation Yrotation
                    End Site
                    {
                      OFFSET 0 0 0
                    }
                  }
                }
              }
            }
          }
        }
        JOINT LeftShoulder
        {
          OFFSET 4.34795 11.1512 -0.605422
          CHANNELS 3 Zrotation Xrotation Yrotation
          JOINT LeftArm
          {
            OFFSET 0 14.6258 0
            CHANNELS 3 Zrotation Xrotation Yrotation
            JOINT LeftArmRoll
            {
              OFFSET 0 7.3834 0
              CHANNELS 3 Zrotation Xrotation Yrotation
              JOINT LeftForeArm
              {
                OFFSET 0 21.5052 0
                CHANNELS 3 Zrotation Xrotation Yrotation
                JOINT LeftForeArmRoll
                {
                  OFFSET 0 8.28532 0
                  CHANNELS 3 Zrotation Xrotation Yrotation
                  JOINT LeftHand
                  {
                    OFFSET 0 16.6268 0
                    CHANNELS 3 Zrotation Xrotation Yrotation
                    End Site
                    {
                      OFFSET 0 0 0
                    }
                  }
                }
              }
            }
          }
        }
      }
    }
  }
  JOINT RightUpLeg
  {
    OFFSET -7.8151 -1.43309 -1.20217
    CHANNELS 3 Zrotation Xrotation Yrotation
    JOINT RightUpLegRoll
    {
      OFFSET 0 19.4959 0
      CHANNELS 3 Zrotation Xrotation Yrotation
      JOINT RightLeg
      {
        OFFSET 0 -24.1427 0
        CHANNELS 3 Zrotation Xrotation Yrotation
        JOINT RightLegRoll
        {
          OFFSET 0 24.2217 0
          CHANNELS 3 Zrotation Xrotation Yrotation
          JOINT RightFoot
          {
            OFFSET 0 20.1605 0
            CHANNELS 3 Zrotation Xrotation Yrotation
            JOINT RightToeBase
            {
              OFFSET 0 16.8532 0
              CHANNELS 3 Zrotation Xrotation Yrotation
              End Site
              {
                OFFSET 0.00714343 8.16187 -0.940781
              }
            }
          }
        }
      }
    }
  }
  JOINT LeftUpLeg
  {
    OFFSET 7.8151 -1.43309 -1.20217
    CHANNELS 3 Zrotation Xrotation Yrotation
    JOINT LeftUpLegRoll
    {
      OFFSET 0 19.496 0
      CHANNELS 3 Zrotation Xrotation Yrotation
      JOINT LeftLeg
      {
        OFFSET 0 24.1426 0
        CHANNELS 3 Zrotation Xrotation Yrotation
        JOINT LeftLegRoll
        {
          OFFSET 0 24.4456 0
          CHANNELS 3 Zrotation Xrotation Yrotation
          JOINT LeftFoot
          {
            OFFSET 0 19.9366 0
            CHANNELS 3 Zrotation Xrotation Yrotation
            JOINT LeftToeBase
            {
              OFFSET 0 16.8532 0
              CHANNELS 3 Zrotation Xrotation Yrotation
              End Site
              {
                OFFSET -0.0320138 8.16186 -0.940781
              }
            }
          }
        }
      }
    }
  }
}
MOTION
Frames: 8
Frame Time: 0.00208333
51.314 51.2046 9.59957 -2.63351 4.00747 2.35843 0.903067 3.63499 -0.00365264 1.83023 11.2708 -0.18477 1.83927 12.9154 -0.21668 -12.3723 44.0397 9.52945 -4.63346 -4.14139 2.52989 57.7294 4.9839 3.17736 92.0964 27.736 -27.7686 -7.04231e-006 3.83403e-007 -1.35275e-007 5.80449 75.2654 -5.42219 -5.45348e-006 9.56834e-007 -3.00787 8.0289 -4.95145 0.697687 -63.6439 -1.74331 1.60672 -109.387 29.2208 24.282 5.96354e-015 3.57812e-015 3.18055e-015 -12.5765 73.8956 12.4916 1.16932e-005 -1.25153e-006 3 -8.02886 -4.95147 -0.697698 54.1384 73.9543 130.02 180 7.01532e-015 178.859 -7.23773 73.6173 7.73452 -1.01584e-006 -2.57673e-006 1.71133 -23.8692 73.4948 25.5306 8.12791 25.2331 -3.48407 -39.891 76.5096 -145.349 4.54188e-006 -4.6773e-006 -1.68496 167.605 -70.1178 164.248 -3.98827e-006 -1.60974e-006 -2.76676 33.7627 76.4899 -32.3578 -8.13102 25.2415 3.47504 
51.3248 51.2529 9.57247 -2.63416 3.86016 2.40322 0.90467 3.64582 0.00374521 1.83301 11.2925 -0.170402 1.8419 12.9372 -0.202324 -12.301 43.9569 9.43952 -4.5016 -4.11905 2.50572 57.8636 4.99935 3.16234 91.9735 27.8563 -27.5069 -7.04231e-006 3.83403e-007 -1.35275e-007 6.33574 75.1629 -5.85496 -5.45348e-006 9.56834e-007 -3.00787 8.0289 -4.95145 0.697687 -63.4932 -1.74949 1.59463 -109.654 29.3649 24.3528 -2.56432e-014 1.74931e-014 -3.18055e-015 -12.6569 73.5885 12.4735 1.16932e-005 -1.25153e-006 3 -8.02886 -4.95147 -0.697698 54.7788 74.0507 129.357 180 7.01532e-015 178.858 -7.27177 73.6591 7.76891 -1.01584e-006 -2.57673e-006 1.70962 -23.8656 73.507 25.5458 8.12791 25.2331 -3.48407 -40.1376 76.7047 -145.064 4.54188e-006 -4.6773e-006 -1.68507 167.553 -70.2021 164.206 -3.98827e-006 -1.60974e-006 -2.75816 33.6359 76.449 -32.247 -8.13102 25.2415 3.47505 
51.3121 51.3037 9.53193 -2.63293 3.71568 2.44918 0.90574 3.65588 0.0119657 1.83463 11.3128 -0.154264 1.84334 12.9574 -0.186174 -12.2186 43.876 9.34242 -4.37059 -4.09989 2.47954 57.9796 5.00496 3.14383 91.8816 27.973 -27.25 -7.04231e-006 3.83403e-007 -1.35275e-007 6.86958 75.0614 -6.29022 -5.45348e-006 9.56834e-007 -3.00787 8.0289 -4.95145 0.697687 -63.3136 -1.75803 1.58107 -109.956 29.5034 24.4341 -6.36111e-015 1.31198e-014 6.36111e-015 -12.7303 73.2693 12.4462 1.16932e-005 -1.25153e-006 3 -8.02886 -4.95147 -0.697698 55.4175 74.1416 128.694 180 7.01531e-015 178.857 -7.30773 73.7011 7.80553 -1.01584e-006 -2.57673e-006 1.70773 -23.8593 73.5182 25.5594 8.12791 25.2331 -3.48407 -40.3761 76.8985 -144.787 4.54188e-006 -4.6773e-006 -1.68501 167.502 -70.2882 164.165 -3.98827e-006 -1.60974e-006 -2.74921 33.5022 76.4058 -32.1306 -8.13101 25.2414 3.47506 
51.3203 51.3531 9.49615 -2.63012 3.57361 2.49598 0.90641 3.66509 0.0207915 1.83539 11.3313 -0.136818 1.84389 12.9759 -0.168697 -12.1279 43.7976 9.24006 -4.24159 -4.08417 2.45161 58.077 5.00227 3.12305 91.8202 28.0859 -26.998 -7.04231e-006 3.83403e-007 -1.35275e-007 7.40396 74.9596 -6.72581 -5.45348e-006 9.56834e-007 -3.00787 8.0289 -4.95145 0.697687 -63.1099 -1.76928 1.56677 -110.29 29.6363 24.5251 -2.68359e-014 1.78906e-014 3.18055e-015 -12.798 72.94 12.4113 1.16932e-005 -1.25153e-006 3 -8.02886 -4.95147 -0.697698 56.0532 74.2274 128.032 180 7.01531e-015 178.855 -7.34567 73.7429 7.8445 -1.01584e-006 -2.57673e-006 1.7057 -23.8502 73.528 25.5709 8.12791 25.2331 -3.48407 -40.6073 77.0907 -144.518 4.54188e-006 -4.6773e-006 -1.68482 167.451 -70.3752 164.124 -3.98827e-006 -1.60974e-006 -2.74003 33.3634 76.3607 -32.0099 -8.13101 25.2414 3.47506 
51.3368 51.3664 9.47453 -2.626 3.43352 2.54329 0.906815 3.67341 0.0300052 1.83556 11.3481 -0.118526 1.84385 12.9927 -0.150362 -12.0316 43.7228 9.13437 -4.11578 -4.07216 2.42218 58.155 4.9928 3.10122 91.7891 28.1948 -26.7515 -7.04231e-006 3.83403e-007 -1.35275e-007 7.9367 74.8557 -7.15939 -5.45348e-006 9.56834e-007 -3.00787 8.0289 -4.95145 0.697687 -62.887 -1.78359 1.55245 -110.649 29.7635 24.625 3.18055e-015 6.75868e-015 6.36111e-015 -12.8611 72.6021 12.3704 1.16932e-005 -1.25153e-006 3 -8.02886 -4.95147 -0.697698 56.6846 74.3081 127.373 180 7.01531e-015 178.854 -7.38563 73.7843 7.88595 -1.01584e-006 -2.57673e-006 1.70357 -23.8382 73.5364 25.5802 8.12791 25.2331 -3.48407 -40.8321 77.2809 -144.255 4.54188e-006 -4.6773e-006 -1.68457 167.399 -70.462 164.083 -3.98827e-006 -1.60974e-006 -2.73076 33.2211 76.3141 -31.8863 -8.13101 25.2413 3.47507 
51.3368 51.409 9.44684 -2.62088 3.29498 2.59078 0.907092 3.68077 0.0393895 1.83545 11.363 -0.099849 1.84352 13.0076 -0.131635 -11.9323 43.6523 9.02726 -3.99435 -4.06409 2.39152 58.2129 4.97809 3.07955 91.7879 28.2997 -26.5107 -7.04231e-006 3.83403e-007 -1.35275e-007 8.46555 74.7483 -7.58859 -5.45348e-006 9.56834e-007 -3.00787 8.0289 -4.95145 0.697687 -62.6497 -1.8013 1.53885 -111.028 29.885 24.7329 -2.48481e-014 1.47101e-014 9.54166e-015 -12.9205 72.2577 12.3248 1.16932e-005 -1.25153e-006 3 -8.02886 -4.95147 -0.697698 57.3103 74.384 126.719 180 7.0153e-015 178.853 -7.42765 73.8248 7.93 -1.01584e-006 -2.57673e-006 1.70139 -23.8235 73.543 25.5869 8.12791 25.2331 -3.48407 -41.0515 77.4686 -143.999 4.54188e-006 -4.6773e-006 -1.68428 167.348 -70.5478 164.041 -3.98827e-006 -1.60974e-006 -2.7215 33.077 76.2666 -31.761 -8.131 25.2413 3.47508 
51.3611 51.4245 9.4242 -2.61504 3.15758 2.63813 0.907375 3.68712 0.0487268 1.83535 11.3758 -0.0812498 1.84319 13.0204 -0.112985 -11.8326 43.5871 8.92059 -3.87847 -4.06025 2.35988 58.2501 4.95967 3.05925 91.8163 28.4004 -26.2761 -7.04231e-006 3.83403e-007 -1.35275e-007 8.9881 74.636 -8.01088 -5.45348e-006 9.56834e-007 -3.00787 8.0289 -4.95145 0.697687 -62.403 -1.82275 1.52669 -111.421 30.0008 24.8479 -1.88845e-014 1.70955e-014 3.18055e-015 -12.9772 71.9085 12.2758 1.16932e-005 -1.25153e-006 3 -8.02886 -4.95147 -0.697698 57.929 74.4554 126.072 180 7.0153e-015 178.852 -7.47178 73.8641 7.97674 -1.01584e-006 -2.57673e-006 1.69919 -23.8058 73.5478 25.5907 8.12791 25.2331 -3.48407 -41.2662 77.6534 -143.749 4.54188e-006 -4.6773e-006 -1.68402 167.296 -70.6315 163.999 -3.98827e-006 -1.60974e-006 -2.7124 32.9326 76.2183 -31.6352 -8.131 25.2412 3.47509 
51.3587 51.4618 9.39489 -2.60878 3.0209 2.68501 0.907799 3.69238 0.0577997 1.83554 11.3865 -0.06319 1.84317 13.0311 -0.0948816 -11.7354 43.5281 8.81625 -3.76934 -4.06087 2.32754 58.2659 4.93907 3.04154 91.874 28.497 -26.0479 -7.04231e-006 3.83403e-007 -1.35275e-007 9.50192 74.5172 -8.4237 -5.45348e-006 9.56834e-007 -3.00787 8.0289 -4.95145 0.697687 -62.1515 -1.84828 1.51671 -111.824 30.1108 24.9691 -2.11706e-014 1.61016e-014 6.36111e-015 -13.032 71.5564 12.2245 1.16932e-005 -1.25153e-006 3 -8.02886 -4.95147 -0.697698 58.5393 74.5224 125.433 180 7.0153e-015 178.851 -7.51804 73.9019 8.02629 -1.01584e-006 -2.57673e-006 1.69701 -23.7853 73.5504 25.5914 8.12791 25.2331 -3.48407 -41.4771 77.8349 -143.504 4.54188e-006 -4.6773e-006 -1.68383 167.244 -70.7122 163.956 -3.98827e-006 -1.60974e-006 -2.70357 32.7896 76.1699 -31.51 -8.131 25.2412 3.4751 
